<?xml version="1.0" encoding="UTF-8"?>
<svg id="Capa_1" data-name="Capa 1" xmlns="http://www.w3.org/2000/svg" viewBox="0 0 1444 1443.24">
  <defs>
    <style>
      .cls-1 {
        fill: #fefefe;
      }

      .cls-1, .cls-2 {
        stroke-width: 0px;
      }

      .cls-2 {
        fill: #83bd55;
      }
    </style>
  </defs>
  <path class="cls-2" d="m1410.52,540.32c-14.45,50.95-.35,96.28,23.23,141.38,12.86,24.59,14.39,54.97.16,79.29-28,47.87-32.93,97.99-24.64,150.9,5.32,33.93-10.35,58.11-33.58,80.49-27.67,26.67-47.62,57.43-50,98.14-2.62,44.91-29.49,75.91-68.4,93.51-39.09,17.68-62.12,47.69-81.07,83.66-17.78,33.73-45.54,53.5-84.31,58.2-39.48,4.79-73.54,20.24-101.48,50.52-26.48,28.7-56.51,44.65-100.63,34.22-35.97-8.51-74.86-4.91-110.33,15.71-38.95,22.64-81.15,22.52-120.22-.09-36.45-21.09-75.88-23.08-113.51-15.13-35.55,7.51-63.85-2.03-85.77-24.08-34.7-34.9-71.81-60.16-122.12-63.98-37.49-2.84-62.34-27.51-76.08-58.73-16.81-38.19-43.64-64.65-79.16-81.81-39.82-19.25-60.25-48.67-66.47-91.99-5.62-39.17-22.24-73.63-53.91-100.23-32.36-27.18-40.54-65.56-30.79-103.6,8.82-34.42,6.15-66.45-10.51-94.15-30.81-51.22-25.3-98.46,1.49-148.17,14.17-26.28,16.04-54,9.26-85.13-8.43-38.73-3.87-78.2,31.33-106.66,32.76-26.49,50.05-63.52,54.55-103.17,5.38-47.43,33.14-73.66,71.22-92.29,26.73-13.08,50.55-30.28,61.06-56.7,22.68-57.01,65.86-81.05,122.86-88.06,27.24-3.35,49.14-17.15,67.35-36.82,33.65-36.33,70.7-55.87,123.29-41.32,27.65,7.65,59.87,5.58,85.79-11.65,49.86-33.14,98.78-27.07,147.32.71,30.88,17.67,63.2,15.31,95.26,8.91,33.71-6.73,62.64-.35,86.93,23.42,34.46,33.73,71.73,59.38,122.33,64.13,42.25,3.96,67.57,34.1,84.87,70.56,15.52,32.7,39.15,55.83,72.75,69.92,41.41,17.37,63.2,50.93,67,94.37,3.32,37.92,20,68.25,46.23,93.26,27.03,25.76,43.13,54.36,38.68,92.48Zm-184.61-59.1c-10.29,7.02-20.96,14.11-31.45,21.48-24.22,17.03-27.3,37.12-16.03,65.07,18.1,44.87,24.8,93.3,25.82,141.31,2.01,94.19-20.66,183.19-69.67,264.02-48.56,80.09-115.54,142.87-199.53,183.19-92.65,44.47-191.24,59.36-294.33,42.09-94.86-15.89-177.88-55.62-247.67-120.22-105.91-98.03-155.5-219.78-153.5-365.49,1.59-115.54,37.8-216.15,110.42-303.58,126.74-152.59,347.36-210.54,535.29-143.2,46.66,16.72,45.13,15.4,77.22-21.65,15.1-17.43,10.9-22.04-6.56-30-102.13-46.57-207.96-61.82-319.44-44.96-149.74,22.65-270.93,94.98-361.04,213.84-99.4,131.12-135.46,280.87-104.97,444.34,21.63,115.95,77.4,214.75,160.49,296.5,49.13,48.33,107.52,85.34,172.06,113.15,103.94,44.78,211.61,56.66,320.81,35.14,133.55-26.32,245.36-92.45,332.05-200.25,79.85-99.29,119.54-212.68,125.02-338.16,4-91.62-19.91-178.3-55.02-252.61Zm-569.93,237.91c-25.52-26.54-51.82-52.86-76.83-80.34-12.96-14.24-21.85-18.47-37.41-1.53-32.35,35.21-66.47,68.92-101.45,101.54-14.2,13.24-10.85,19.64,1.13,31.43,69.76,68.61,139.44,137.34,207.31,207.8,17.5,18.17,25.15,9.18,35.74-3.9,17.8-21.99,34.93-44.57,53.55-65.86,63.78-72.93,128.69-144.88,192.03-218.19,93.5-108.21,186.03-217.27,280.6-327.87-45.17-39.82-90.97-80.2-138.87-122.43-137.82,158.89-275.61,317.73-415.79,479.35Z"/>
  <path class="cls-1" d="m1225.91,481.22c35.11,74.32,59.02,160.99,55.02,252.61-5.48,125.48-45.17,238.87-125.02,338.16-86.69,107.79-198.5,173.93-332.05,200.25-109.2,21.52-216.87,9.63-320.81-35.14-64.54-27.8-122.93-64.81-172.06-113.15-83.09-81.74-138.86-180.55-160.49-296.5-30.49-163.47,5.57-313.22,104.97-444.34,90.11-118.86,211.29-191.19,361.04-213.84,111.48-16.86,217.31-1.61,319.44,44.96,17.46,7.96,21.65,12.57,6.56,30-32.09,37.05-30.56,38.37-77.22,21.65-187.93-67.34-408.55-9.39-535.29,143.2-72.62,87.43-108.83,188.04-110.42,303.58-2,145.71,47.59,267.46,153.5,365.49,69.79,64.6,152.81,104.33,247.67,120.22,103.09,17.27,201.68,2.38,294.33-42.09,83.99-40.32,150.96-103.09,199.53-183.19,49.01-80.83,71.68-169.83,69.67-264.02-1.02-48.02-7.72-96.44-25.82-141.31-11.28-27.95-8.2-48.05,16.03-65.07,10.48-7.37,21.16-14.46,31.45-21.48Z"/>
  <path class="cls-1" d="m655.98,719.13c140.18-161.61,277.97-320.46,415.79-479.35,47.9,42.23,93.7,82.61,138.87,122.43-94.57,110.6-187.1,219.66-280.6,327.87-63.34,73.31-128.25,145.26-192.03,218.19-18.61,21.28-35.74,43.86-53.55,65.86-10.59,13.09-18.24,22.07-35.74,3.9-67.87-70.46-137.55-139.19-207.31-207.8-11.98-11.79-15.33-18.18-1.13-31.43,34.98-32.62,69.1-66.33,101.45-101.54,15.57-16.94,24.45-12.71,37.41,1.53,25.01,27.48,51.31,53.79,76.83,80.34Z"/>
</svg>