<?xml version="1.0" encoding="utf-8"?>
<!-- Generator: Adobe Illustrator 27.9.0, SVG Export Plug-In . SVG Version: 6.00 Build 0)  -->
<svg version="1.1" id="Layer_1" xmlns="http://www.w3.org/2000/svg" xmlns:xlink="http://www.w3.org/1999/xlink" x="0px" y="0px"
	 viewBox="0 0 512 512" style="enable-background:new 0 0 512 512;" xml:space="preserve">
<style type="text/css">
	.st0{fill:#3A3A3A;}
</style>
<path class="st0" d="M512,256c0,35.2-28.8,64-64,64H341.3c-35.2,0-64-28.8-64-64s28.8-64,64-64H448C483.2,192,512,220.8,512,256z
	 M341.3,128H448c35.2,0,64-28.8,64-64S483.2,0,448,0H341.3c-35.2,0-64,28.8-64,64S306.1,128,341.3,128z M448,384H341.3
	c-35.2,0-64,28.8-64,64s28.8,64,64,64H448c35.2,0,64-28.8,64-64S483.2,384,448,384z M234.7,362.7v64c0,47.1-38.2,85.3-85.3,85.3h-64
	C38.2,512,0,473.8,0,426.7v-64c0-47.1,38.2-85.3,85.3-85.3h64C196.5,277.3,234.7,315.5,234.7,362.7z M170.7,362.7
	c0-11.7-9.6-21.3-21.3-21.3h-64c-11.7,0-21.3,9.6-21.3,21.3v64c0,11.7,9.6,21.3,21.3,21.3h64c11.7,0,21.3-9.6,21.3-21.3V362.7z
	 M234.7,85.3v64c0,47.1-38.2,85.3-85.3,85.3h-64C38.2,234.7,0,196.5,0,149.3v-64C0,38.2,38.2,0,85.3,0h64
	C196.5,0,234.7,38.2,234.7,85.3z M170.7,85.3c0-11.7-9.6-21.3-21.3-21.3h-64C73.6,64,64,73.6,64,85.3v64c0,11.7,9.6,21.3,21.3,21.3
	h64c11.7,0,21.3-9.6,21.3-21.3V85.3z"/>
</svg>
