<?xml version="1.0" encoding="utf-8"?>
<!-- Generator: Adobe Illustrator 27.9.0, SVG Export Plug-In . SVG Version: 6.00 Build 0)  -->
<svg version="1.1" id="Bold" xmlns="http://www.w3.org/2000/svg" xmlns:xlink="http://www.w3.org/1999/xlink" x="0px" y="0px"
	 viewBox="0 0 512 512" style="enable-background:new 0 0 512 512;" xml:space="preserve">
<style type="text/css">
	.st0{fill:#3A3A3A;}
</style>
<circle class="st0" cx="138.7" cy="309.3" r="32"/>
<path class="st0" d="M394.7,64H117.3C52.6,64.1,0.1,116.6,0,181.3v149.3C0.1,395.4,52.6,447.9,117.3,448h277.3
	c64.8-0.1,117.3-52.6,117.3-117.3V181.3C511.9,116.6,459.4,64.1,394.7,64z M117.3,128h277.3c25.3,0,47.2,17.8,52.2,42.7H65.1
	C70.2,145.8,92,128,117.3,128z M394.7,384H117.3C87.9,384,64,360.1,64,330.7v-96h384v96C448,360.1,424.1,384,394.7,384z"/>
</svg>
